<?xml version="1.0" standalone="no"?>
<!DOCTYPE svg PUBLIC "-//W3C//DTD SVG 20010904//EN"
 "http://www.w3.org/TR/2001/REC-SVG-20010904/DTD/svg10.dtd">
<svg version="1.0" xmlns="http://www.w3.org/2000/svg"
 width="138.000000pt" height="138.000000pt" viewBox="0 0 138.000000 138.000000"
 preserveAspectRatio="xMidYMid meet">

<g transform="translate(0.000000,138.000000) scale(0.100000,-0.100000)"
fill="#000000" stroke="none">
<path d="M440 1364 c-153 -40 -305 -164 -374 -304 -51 -104 -66 -169 -66 -284
0 -182 54 -313 180 -437 123 -122 244 -171 421 -171 112 1 225 32 309 88 29
19 55 34 59 34 4 0 76 -65 161 -145 133 -125 158 -145 186 -145 41 0 64 22 64
63 1 28 -17 49 -156 182 l-156 150 41 70 c142 245 91 579 -117 765 -66 59
-167 114 -248 135 -73 19 -230 19 -304 -1z m242 -125 c187 -39 337 -200 369
-395 23 -143 -30 -300 -136 -406 -260 -258 -675 -135 -770 228 -62 240 93 503
336 568 66 18 131 20 201 5z"/>
</g>
</svg>
